# xmcd
#
# Track frame offsets: 
#        150
#        17121
#        36478
#        48954
#        68109
#        85204
#        103561
#        123475
#        138071
#        149986
#        168763
#        184089
#        203037
#        221122
#
# Disc length: 3200 seconds
#
# Revision: 0
# Processed by: cddbd v1.5.2PL0 Copyright (c) Steve Scherf et al.
# Submitted via: ExactAudioCopyFreeDBPlugin 1.0
#
DISCID=ce0c7e0e
DTITLE=Puss N Boots - Sister
DYEAR=2020
DGENRE=Country
TTITLE0=Jamola
TTITLE1=It's Not Easy
TTITLE2=Nothing You Can Do
TTITLE3=Lucky
TTITLE4=You And Me
TTITLE5=You Don't Know
TTITLE6=The Great Romancer
TTITLE7=It's A Wonderful Life
TTITLE8=Sister
TTITLE9=The Razor Song
TTITLE10=Angel Dream
TTITLE11=Same Old Bullshit
TTITLE12=Joey
TTITLE13=The Grass Is Blue
EXTD=
EXTT0=
EXTT1=
EXTT2=
EXTT3=
EXTT4=
EXTT5=
EXTT6=
EXTT7=
EXTT8=
EXTT9=
EXTT10=
EXTT11=
EXTT12=
EXTT13=
PLAYORDER=
